<svg xmlns="http://www.w3.org/2000/svg" xmlns:xlink="http://www.w3.org/1999/xlink" version="1.1" id="Capa_1" x="0px" y="0px" width="82.992px" height="91.768px" viewBox="0 0 82.992 91.768" enable-background="new 0 0 82.992 91.768" xml:space="preserve">
<path fill="#000000" d="M41.087,58.189c1.056,0.441,2.13,0.692,3.209,0.708c3.865-0.056,7.695-3.047,10.724-7.539  c2.559-3.84,4.498-8.878,5.028-14.505c1.67-1.363,2.567-3.329,2.567-5.523c0-2.132-0.848-4.05-2.428-5.408  c-0.102-4.28-0.524-8.136-2.321-11.246c-1.087-1.871-2.723-3.413-4.963-4.421c-2.24-1.014-5.053-1.525-8.607-1.526  c-3.556,0.001-6.369,0.513-8.609,1.526c-3.379,1.51-5.312,4.236-6.245,7.433c-0.769,2.588-0.989,5.515-1.048,8.667  c-1.283,1.32-1.969,3.06-1.969,4.975c0,1.968,0.724,3.752,2.076,5.083c0.466,5.805,2.444,11.004,5.07,14.944  c1.132,1.68,2.376,3.148,3.693,4.333c-2.256,0.175-4.505-0.938-5.609-2.988C31.557,52.518,16.588,24.782,8.409,9.627l-3.214,1.596  c8.196,15.188,23.213,43.014,23.246,43.075C30.822,58.721,36.477,60.458,41.087,58.189z M32.884,15.94  c0.863-1.461,2.036-2.583,3.835-3.406v2.085c1.8-0.817,4.258,2.033,7.577,2.034v1.251c3.317-0.002,5.774-4.103,7.575-3.286  c2.681,1.237,4.039,1.047,4.881,3.786c0.521,1.729,0.77,3.78,0.881,6.06c-1.069-0.375-2.3-0.583-3.681-0.583  c-4.343,0-8.039-1.703-9.432,1.166c-1.395-2.869-5.091-1.166-9.433-1.166c-1.586,0-2.968,0.281-4.141,0.769  C31.114,21.091,31.609,18.084,32.884,15.94z M35.653,49.97c-2.102-3.148-3.775-7.26-4.441-11.854  c1.116,0.421,2.409,0.661,3.876,0.661c4.342,0,6.61-4.831,9.433-7.422c2.711,2.49,5.089,7.422,9.432,7.422  c1.267,0,2.399-0.182,3.405-0.5c-0.681,4.529-2.341,8.581-4.419,11.693c-2.725,4.135-6.22,6.479-8.643,6.423  c-0.209,0.005-0.429-0.015-0.653-0.046c2.115-2.158,3.005-5.216,2.334-8.138c0.984-0.361,1.624-0.938,1.624-1.589  c0-1.094-1.798-1.981-4.016-1.981c-2.218,0-4.017,0.887-4.017,1.981c0,0.876,1.154,1.618,2.753,1.88  c0.751,2.313-0.157,4.855-2.258,6.234C38.554,53.639,37.008,52.027,35.653,49.97z M3.214,0L0,1.596c0,0,1.197,2.217,3.097,5.739  l3.214-1.596C4.411,2.218,3.214,0,3.214,0z M80.225,34.92c-2.714-1.887-6.245-1.501-7.888,0.861l-8.096,11.648  c-0.111,0.161-0.21,0.329-0.299,0.499l-1.048,1.424c0,0-27.457,21.651-27.143,25.083c2.742,1.88,10.727,0.315,12.194,8.477  c10.194,0.092,10.192,7.084,12.74,8.855c3.059,0.26,12.588-35.2,12.588-35.2l9.085-14.234c0,0,0-0.013,0-0.037  C83.722,39.951,82.821,36.724,80.225,34.92z M80.297,41.664l-3.164,4.551l-6.188-4.301l3.163-4.552  c1.033-1.488,3.258-1.73,4.967-0.542C80.784,38.007,81.332,40.176,80.297,41.664z"/>
</svg>