<svg xmlns="http://www.w3.org/2000/svg" xmlns:xlink="http://www.w3.org/1999/xlink" version="1.0" id="Layer_1" x="0px" y="0px" viewBox="0 0 24 24" enable-background="new 0 0 24 24" xml:space="preserve" height="100px" width="100px">
<ellipse cx="18.5" cy="8.5" rx="2.5" ry="2.5"/>
<path d="M22,16.4c-1.4-0.6-3.7-1.4-5.5-1.4c-1.7,0-3.1,0.5-4.4,1.1C10.9,16.6,9.8,17,8.5,17c-2,0-5.2-1.2-6.5-1.7v2.1  C3.7,18.1,6.4,19,8.5,19c1.7,0,3-0.5,4.3-1.1c1.2-0.5,2.3-0.9,3.7-0.9c1.8,0,4.4,1.1,5.5,1.6V16.4z"/>
<path fill="none" stroke="#000000" stroke-width="2" stroke-miterlimit="10" d="M6,10l3.5-2.1c0.9-0.5,2-0.3,2.6,0.5  c1.1,1.4,2.7,3.5,2.7,3.5"/>
<path d="M6,14c0,0,0.8,1,2.5,1c2.5,0,2.9-2,8.5-2l-3-3.6L6,14z"/>
</svg>