<svg xmlns="http://www.w3.org/2000/svg" xmlns:xlink="http://www.w3.org/1999/xlink" version="1.1" id="Layer_1" x="0px" y="0px" width="100px" height="100px" viewBox="0 0 100 100" enable-background="new 0 0 100 100" xml:space="preserve">
<g>
	<g>
		<g>
			<path fill="#000000" d="M41.727,53.924c-0.057-0.117-0.18-0.175-0.303-0.175s-0.244,0.058-0.303,0.174     c-0.166,0.334-0.327,0.71-0.483,1.117c-0.6,1.561-1.41,2.885-2.421,3.976c0.07,0.082,0.13,0.176,0.163,0.286     c0.211,0.731,1.911,1.246,3.044,1.378c1.133-0.132,2.833-0.646,3.047-1.378c0.03-0.11,0.09-0.205,0.163-0.286     c-1.012-1.091-1.822-2.415-2.421-3.976C42.057,54.633,41.893,54.257,41.727,53.924z"/>
			<path fill="#000000" d="M66.217,48.048c-0.547-4.483-2.831-8.065-6.6-10.359c-3.705-2.255-7.616-2.499-9.125-2.499H32.315     c-1.502,0-5.392,0.244-9.092,2.501c-3.765,2.295-6.046,5.877-6.593,10.357c-0.687,5.602,0.337,9.991,3.042,13.048     c2.122,2.396,5.107,3.715,8.404,3.715c3.414,0,6.335-0.701,8.713-2.091c1.566,1.112,3.604,1.412,4.359,1.486     c0.083,0.009,0.178,0.014,0.274,0.014s0.194-0.005,0.289-0.016c0.748-0.073,2.781-0.372,4.347-1.484     c2.376,1.39,5.297,2.091,8.711,2.091c3.3,0,6.284-1.318,8.404-3.715C65.88,58.039,66.903,53.648,66.217,48.048z M61.656,59.752     c-1.729,1.955-4.176,3.032-6.886,3.032c-3.75,0-6.752-0.914-8.992-2.709c-0.858,1.717-3.911,2.077-4.278,2.112     c-0.024,0.004-0.05,0.005-0.076,0.005s-0.05-0.001-0.076-0.005c-0.367-0.035-3.42-0.396-4.278-2.112     c-2.24,1.795-5.242,2.709-8.992,2.709c-2.71,0-5.154-1.077-6.886-3.032c-2.303-2.604-3.16-6.458-2.549-11.458     c0.471-3.843,2.421-6.912,5.635-8.872c3.263-1.99,6.709-2.204,8.038-2.204h18.177c1.336,0,4.804,0.214,8.07,2.203     c3.222,1.959,5.172,5.027,5.643,8.873C64.819,53.294,63.962,57.148,61.656,59.752z"/>
			<path fill="#000000" d="M57.511,41.152c-2.831-1.721-5.854-1.907-7.019-1.907H32.315c-1.158,0-4.157,0.187-6.981,1.907     c-2.667,1.627-4.287,4.182-4.679,7.39c-0.54,4.396,0.152,7.717,2.055,9.866c1.341,1.514,3.245,2.348,5.367,2.348     c5.515,0,9.002-2.107,10.667-6.441c0.178-0.468,0.367-0.902,0.562-1.292c0.4-0.812,1.213-1.314,2.118-1.314     s1.718,0.503,2.12,1.314c0.192,0.39,0.382,0.824,0.562,1.292c1.663,4.334,5.152,6.441,10.665,6.441     c2.122,0,4.029-0.834,5.37-2.348c1.899-2.149,2.592-5.47,2.052-9.867C61.801,45.332,60.181,42.778,57.511,41.152z M57.61,56.169     c-0.691,0.779-1.698,1.209-2.84,1.209c-4.17,0-6.347-1.237-7.51-4.271c-0.216-0.563-0.447-1.097-0.689-1.584     c-0.976-1.97-2.949-3.193-5.147-3.193s-4.169,1.224-5.146,3.191c-0.239,0.483-0.471,1.017-0.689,1.583     c-1.165,3.037-3.34,4.274-7.512,4.274c-1.139,0-2.148-0.429-2.838-1.208c-1.231-1.395-1.646-3.822-1.229-7.218     c0.271-2.206,1.277-3.814,3.082-4.915c2.095-1.275,4.352-1.414,5.224-1.414h18.177c0.881,0,3.162,0.139,5.261,1.416     c1.808,1.099,2.817,2.706,3.087,4.913C59.257,52.348,58.843,54.775,57.61,56.169z"/>
		</g>
	</g>
	<path fill="#000000" d="M77.15,24.967c0.152,0,0.364,0.079,0.46,0.299c0.056,0.13,1.392,3.213,2.497,6.808   c1.105,3.599-0.082,6.307-0.238,6.641c-1.227,2.713-12.043,26.671-14.324,32.446c-1.988,5.035-5.733,6.692-7.434,6.864   L33.23,80.528c-0.021,0.002-0.041,0.003-0.061,0.003c-0.221,0-0.465-0.168-0.493-0.449c-0.028-0.274,0.173-0.521,0.447-0.548   l6.101-0.614l4.699-0.488c0.1,0,0.2-0.005,0.301-0.015l13.707-1.379c0.084-0.009,0.168-0.021,0.251-0.036   c1.004-0.188,4.425-1.185,6.409-6.151L79.04,38.124c0.025-0.057,0.049-0.114,0.07-0.172c0.239-0.637,0.896-2.802,0.04-5.585   c-1.008-3.282-2.215-6.14-2.456-6.7c-0.109-0.253,0.007-0.549,0.257-0.657C77.018,24.98,77.082,24.967,77.15,24.967 M77.15,21.967   c-0.467,0-0.94,0.094-1.395,0.291c-1.771,0.771-2.583,2.833-1.812,4.605c0.013,0.03,1.301,3.003,2.34,6.385   c0.658,2.143,0.01,3.664,0.013,3.664L61.825,69.69c-1.464,3.706-3.812,4.291-4.193,4.362l-13.708,1.379v-1.06   c2.826-0.812,4.803-2.964,4.803-5.566c0-1.381-1.119-2.502-2.5-2.502l-9.605,0.002c-1.381,0-2.5,1.119-2.5,2.5   c0,2.603,1.977,4.755,4.803,5.566v1.562l-6.101,0.614c-1.923,0.193-3.325,1.909-3.132,3.833c0.182,1.804,1.703,3.149,3.479,3.149   c0.117,0,0.235-0.006,0.354-0.018l24.888-2.504c2.503-0.254,7.409-2.383,9.923-8.748c2.311-5.848,13.818-31.318,14.268-32.312   c0.333-0.711,1.772-4.198,0.372-8.757c-1.16-3.774-2.555-6.988-2.613-7.123C79.787,22.751,78.5,21.967,77.15,21.967L77.15,21.967z"/>
</g>
</svg>